<?xml version="1.0" encoding="utf-8"?>
<!-- Generator: Adobe Illustrator 27.3.1, SVG Export Plug-In . SVG Version: 6.00 Build 0)  -->
<svg version="1.1" id="Camada_1" xmlns="http://www.w3.org/2000/svg" xmlns:xlink="http://www.w3.org/1999/xlink" x="0px" y="0px"
	 viewBox="0 0 512 512" style="enable-background:new 0 0 512 512;" xml:space="preserve">
<style type="text/css">
	.line-10{stroke-width:10;stroke-miterlimit:10;}
	.line-18{fill:none;stroke-width:18;stroke-miterlimit:10;}
	.line-18-round{fill:none;stroke-width:18;stroke-linecap:round;stroke-miterlimit:10;}
	.line-30{fill:none;stroke-width:30;stroke-miterlimit:10;}
	.dark{stroke:#8A2BE2}
	.dark-full{fill:#8A2BE2;stroke:#8A2BE2}
	.ai{stroke:#240045}
	.light{stroke:#E5E5E5}
	.light-full{fill:#E5E5E5;stroke:#E5E5E5}
	.light-ai{stroke:#8A2BE2}
</style>
<path class="line-10 dark-full" d="M148.27,422.34c-9.15,7.39-17.07,12.64-22.87,16.18c-4.14,2.53-6.97,3.96-10.86,4.2
	c-6.18,0.38-11.02-3.1-16.25-6.85c-2.32-1.67-5.62-5.02-12.23-11.72c-4.89-4.96-8.19-8.52-11.6-13.56
	c-3.39-5.02-3.85-7.02-4.03-8.18c-0.77-5.18,1.82-9.5,3.99-12.97c3.69-5.9,9.22-14.14,16.96-23.96"/>
<path class="line-10 dark-full" d="M62.45,296.18c-11.71-1.17-21.03-3.01-27.64-4.57c-4.73-1.11-7.75-2.09-10.68-4.65
	c-4.66-4.07-5.64-9.95-6.7-16.29c-0.47-2.82-0.45-7.51-0.41-16.91c0.03-6.96,0.2-11.81,1.34-17.78c1.14-5.95,2.22-7.69,2.92-8.64
	c3.34-4.53,11.99-6.41,11.99-6.41c11.41-2.42,27.76-3.14,28.97-3.19"/>
<path class="line-10 dark-full" d="M368.63,89.98c8.77-7.12,16.45-12.17,22.14-15.6c4.41-2.66,7.15-3.97,10.86-4.2c6.18-0.38,11.02,3.1,16.25,6.85
	c2.32,1.67,5.62,5.02,12.23,11.72c4.89,4.96,8.19,8.52,11.6,13.56c3.39,5.02,3.85,7.02,4.03,8.18c0.83,5.56-3.99,12.97-3.99,12.97
	c-5.61,7.61-11.21,15.21-16.82,22.82"/>
<path class="line-10 dark-full" d="M217.94,61.35c1.37-11.66,3.35-20.94,5.01-27.52c1.18-4.69,2.21-7.7,4.82-10.58
	c4.15-4.58,10.05-5.48,16.42-6.44c2.83-0.43,7.54-0.34,16.96-0.15c6.98,0.14,11.83,0.38,17.8,1.6c5.95,1.22,7.68,2.33,8.61,3.04
	c4.49,3.4,6.24,12.06,6.24,12.06c2.37,12,3.79,22.16,4.48,27.48"/>
<path class="line-10 dark-full" d="M91.01,146.63c-7.41-9.13-12.67-17.04-16.22-22.82c-2.53-4.12-3.97-6.96-4.21-10.84
	c-0.38-6.16,3.11-11,6.87-16.22c1.67-2.32,5.03-5.61,11.75-12.2c4.98-4.88,8.54-8.18,13.59-11.57c5.03-3.39,7.04-3.85,8.2-4.02
	c5.59-0.83,13,3.98,13,3.98c10.26,6.71,22.23,16.67,23.2,17.48"/>
<path class="line-10 dark-full" d="M298.44,451.19c-1.01,11.45-2.74,20.61-4.23,27.13c-1.11,4.88-2.07,7.82-4.54,10.7
	c-4.03,4.69-9.91,5.74-16.25,6.87c-2.82,0.5-7.53,0.53-16.95,0.6c-6.98,0.05-11.84-0.07-17.83-1.14c-5.98-1.07-7.74-2.13-8.69-2.81
	c-4.59-3.29-6.56-11.89-6.56-11.89c-2.99-13.36-5.09-27.53-5.38-29.46"/>
<path class="line-10 dark-full" d="M424.85,365.51c7.41,9.13,12.67,17.03,16.22,22.81c2.53,4.13,3.97,6.96,4.21,10.84
	c0.38,6.16-3.11,11-6.87,16.22c-1.67,2.32-5.03,5.61-11.75,12.2c-4.98,4.88-8.54,8.18-13.59,11.57c-5.03,3.39-7.04,3.85-8.2,4.02
	c-5.58,0.83-13-3.98-13-3.98c-11.42-7.47-21.38-14.93-24.02-16.92"/>
<path class="line-10 dark-full" d="M453.85,215.88c10.66,0.95,19.18,2.69,25.19,4.19c5.67,1.41,8.21,2.45,10.7,4.6c4.67,4.05,5.68,9.92,6.77,16.26
	c0.48,2.81,0.48,7.51,0.48,16.91c0,6.96-0.15,11.81-1.26,17.78c-1.11,5.95-2.19,7.7-2.88,8.65c-3.31,4.53-11.96,6.46-11.96,6.46
	c-11.45,2.5-21.14,4.07-26.93,4.94"/>
<ellipse class="line-30 dark" cx="258.24" cy="256.02" rx="199.68" ry="199.21"/>
<g>
	<circle class="line-18 ai" cx="330.77" cy="150.35" r="20.85"/>
	<circle class="line-18 ai" cx="377.75" cy="218.2" r="20.85"/>
	<circle class="line-18 ai" cx="377.75" cy="294.86" r="20.85"/>
	<circle class="line-18 ai" cx="330.77" cy="361.2" r="20.85"/>
	<polyline class="line-18 ai" points="316.59,163.49 291.62,187.7 261.08,187.7 	"/>
	<path class="line-18-round ai" d="M354.38,216.02h-19.89l-15.8,20.85c-29.35,0-58.69,0-88.04,0c-0.63,0.02-15.31,0.12-22.74-16.36
		c-5.87-13.04-2.77-26.6-2.27-28.64"/>
	<path class="line-18-round ai" d="M348.88,295.59h-18.46l-14.57-25.37c-28.2,0-56.4,0-84.61,0c-2.19,0.16-16.42,1.44-26.02,14.01
		c-10.18,13.33-6.8,28.4-6.33,30.36"/>
	<polyline class="line-18 ai" points="316.33,348.05 288.83,321.36 261.33,321.36 	"/>
</g>
<path class="line-18 dark" d="M251.91,365.75c3.2-18.35,3.13-104.08,0-220.5c-2.73-17.96-17.88-31.62-36-32.5c-19.08-0.92-36.74,13.44-39,29
	c-0.13,0.88-1.54,11.71,5,20c6.41,8.12,17.14,9.62,17,10c-0.12,0.33-8.06-0.72-16.5-6c-10.25-6.41-10.04-12.05-16-14.5
	c-11.73-4.81-35.3,7.64-39,27c-2.13,11.15,3.07,22.8,10,29.5c7.49,7.24,16.97,8.68,16.55,10.53c-0.47,2.06-11.72-1.99-22.44,2.14
	c-13.03,5.02-23.39,21.37-22.61,38.33c0.09,1.94,1.16,19.48,14.5,29c15.19,10.84,36.59,4.35,37,7c0.42,2.69-22.58,3.07-30.5,17
	c-6.14,10.8-0.87,25.61,5,34c8.14,11.63,24.17,20.54,33.5,16c5.45-2.65,4.61-7.94,13-14c7.6-5.49,15.77-6.56,16-6
	c0.25,0.63-9.76,2.3-15.5,10c-6.05,8.12-5.61,20.58-1.5,29.5c6.64,14.43,23.98,22.02,39,19.5c16.7-2.8,25.34-17.23,27-20
	C246.41,380.75,250.48,373.96,251.91,365.75z"/>
</svg>
